<svg version="1.1" id="Capa_1" xmlns="http://www.w3.org/2000/svg" xmlns:xlink="http://www.w3.org/1999/xlink" x="0px" y="0px" viewBox="0 0 490.667 490.667" style="enable-background:new 0 0 490.667 490.667;" xml:space="preserve"><linearGradient id="SVGID_1_" gradientUnits="userSpaceOnUse" x1="-43.3351" y1="620.783" x2="-27.0726" y2="604.5206" gradientTransform="matrix(21.3333 0 0 -21.3333 996.3334 13315.2227)"><stop offset="0" style="stop-color:#369CDC"></stop><stop offset="1" style="stop-color:#AA56D0"></stop></linearGradient><path style="fill:url(#SVGID_1_);" d="M480,234.667h-53.867c-2.453-41.963-19.157-80.043-45.44-109.589l38.123-38.144 c4.16-4.16,4.16-10.923,0-15.083c-4.16-4.16-10.923-4.16-15.083,0l-38.123,38.144C336.043,83.712,297.963,67.008,256,64.533V10.667 C256,4.779,251.221,0,245.333,0s-10.667,4.779-10.667,10.667v53.867c-41.963,2.475-80.043,19.179-109.589,45.461L86.933,71.851 c-4.16-4.16-10.923-4.16-15.083,0c-4.16,4.16-4.16,10.923,0,15.083l38.123,38.144c-26.261,29.547-42.965,67.627-45.44,109.589 H10.667C4.779,234.667,0,239.445,0,245.333S4.779,256,10.667,256h53.867c2.453,41.963,19.157,80.043,45.44,109.589l-38.123,38.144 c-4.16,4.16-4.16,10.923,0,15.083c2.091,2.091,4.821,3.115,7.531,3.115c2.731,0,5.461-1.045,7.531-3.115l38.123-38.144 c29.547,26.283,67.648,42.987,109.589,45.461V480c0,5.888,4.779,10.667,10.667,10.667s10.667-4.779,10.667-10.667v-53.867 c41.963-2.453,80.043-19.179,109.589-45.461l38.123,38.144c2.091,2.091,4.821,3.115,7.531,3.115c2.731,0,5.461-1.045,7.552-3.115 c4.16-4.16,4.16-10.923,0-15.083l-38.123-38.144c26.283-29.547,42.987-67.627,45.44-109.589H480c5.888,0,10.667-4.779,10.667-10.667 S485.888,234.667,480,234.667z M245.333,405.333c-88.235,0-160-71.765-160-160s71.765-160,160-160s160,71.765,160,160 S333.568,405.333,245.333,405.333z"></path><linearGradient id="SVGID_2_" gradientUnits="userSpaceOnUse" x1="-39.0924" y1="616.5398" x2="-31.3144" y2="608.7618" gradientTransform="matrix(21.3333 0 0 -21.3333 996.3334 13315.2227)"><stop offset="0" style="stop-color:#369CDC"></stop><stop offset="1" style="stop-color:#AA56D0"></stop></linearGradient><path style="fill:url(#SVGID_2_);" d="M328.299,162.368c-0.085-0.085-0.213-0.107-0.299-0.192 C306.773,141.077,277.547,128,245.333,128s-61.44,13.077-82.667,34.176c-0.085,0.085-0.213,0.107-0.299,0.192 c-0.085,0.085-0.107,0.192-0.192,0.277C141.077,183.872,128,213.099,128,245.333s13.077,61.461,34.176,82.688 c0.085,0.085,0.107,0.213,0.192,0.299s0.213,0.107,0.299,0.192c21.227,21.077,50.453,34.155,82.667,34.155 s61.44-13.077,82.667-34.176c0.085-0.085,0.213-0.107,0.299-0.192c0.085-0.085,0.107-0.192,0.192-0.299 c21.099-21.205,34.176-50.432,34.176-82.667s-13.077-61.461-34.176-82.688C328.405,162.56,328.384,162.453,328.299,162.368z M320,304.917l-30.229-30.229c3.712-5.589,6.421-11.904,7.808-18.709h42.667C338.176,274.432,331.029,291.157,320,304.917z M150.4,256h42.667c1.387,6.805,4.096,13.099,7.808,18.709l-30.208,30.208C159.637,291.157,152.491,274.432,150.4,256z M170.667,185.749l30.229,30.229c-3.712,5.589-6.443,11.883-7.829,18.688H150.4C152.491,216.235,159.637,199.509,170.667,185.749z M245.333,277.333c-17.643,0-32-14.357-32-32s14.357-32,32-32s32,14.357,32,32S262.976,277.333,245.333,277.333z M274.688,200.875 c-5.589-3.712-11.904-6.421-18.688-7.808V150.4c18.411,2.091,35.136,9.237,48.917,20.267L274.688,200.875z M234.667,193.088 c-6.805,1.387-13.099,4.096-18.709,7.808l-30.208-30.229c13.781-11.029,30.485-18.176,48.917-20.267V193.088z M215.957,289.792 c5.589,3.712,11.904,6.421,18.709,7.808v42.667c-18.432-2.091-35.136-9.237-48.917-20.267L215.957,289.792z M256,297.579 c6.805-1.387,13.099-4.096,18.688-7.808L304.917,320c-13.781,11.008-30.507,18.176-48.917,20.245V297.579z M297.579,234.667 c-1.387-6.805-4.096-13.099-7.808-18.709L320,185.749c11.029,13.781,18.176,30.507,20.245,48.917H297.579z"></path></svg>